<svg width="14" height="15" viewBox="0 0 14 15" fill="none" xmlns="http://www.w3.org/2000/svg">
<circle cx="7" cy="7.5" r="7" fill="white"/>
<path d="M5.504 10.5V10.028C5.88267 9.72933 6.24 9.428 6.576 9.124C6.91733 8.81467 7.21867 8.51067 7.48 8.212C7.74667 7.91333 7.95467 7.62 8.104 7.332C8.25867 7.044 8.336 6.76667 8.336 6.5C8.336 6.30267 8.30133 6.11867 8.232 5.948C8.168 5.77733 8.06133 5.64133 7.912 5.54C7.76267 5.43333 7.56 5.38 7.304 5.38C7.05867 5.38 6.85333 5.436 6.688 5.548C6.52267 5.65467 6.39733 5.79867 6.312 5.98C6.232 6.16133 6.192 6.356 6.192 6.564H5.544C5.544 6.196 5.62133 5.88133 5.776 5.62C5.93067 5.35333 6.14133 5.15067 6.408 5.012C6.67467 4.87333 6.976 4.804 7.312 4.804C7.808 4.804 8.21333 4.94533 8.528 5.228C8.848 5.50533 9.008 5.92133 9.008 6.476C9.008 6.80667 8.92533 7.13467 8.76 7.46C8.59467 7.78 8.384 8.092 8.128 8.396C7.872 8.69467 7.59733 8.97467 7.304 9.236C7.016 9.49733 6.74667 9.732 6.496 9.94H9.2V10.5H5.504Z" fill="#0C0C0C"/>
</svg>
