<svg width="14" height="15" viewBox="0 0 14 15" fill="none" xmlns="http://www.w3.org/2000/svg">
<circle cx="7" cy="7.5" r="7" fill="white"/>
<path d="M7.336 10.596C6.97867 10.596 6.656 10.532 6.368 10.404C6.08 10.2707 5.848 10.0733 5.672 9.812C5.50133 9.55067 5.41067 9.22533 5.4 8.836H6.08C6.08533 9.156 6.19733 9.43333 6.416 9.668C6.63467 9.89733 6.94133 10.012 7.336 10.012C7.73067 10.012 8.02667 9.90267 8.224 9.684C8.42667 9.46533 8.528 9.20133 8.528 8.892C8.528 8.63067 8.464 8.41733 8.336 8.252C8.21333 8.08667 8.04533 7.964 7.832 7.884C7.624 7.804 7.39467 7.764 7.144 7.764H6.728V7.196H7.144C7.50667 7.196 7.78933 7.11333 7.992 6.948C8.2 6.78267 8.304 6.55067 8.304 6.252C8.304 6.00133 8.22133 5.796 8.056 5.636C7.896 5.47067 7.656 5.388 7.336 5.388C7.02667 5.388 6.77867 5.48133 6.592 5.668C6.40533 5.84933 6.30133 6.07867 6.28 6.356H5.6C5.616 6.052 5.696 5.78267 5.84 5.548C5.98933 5.31333 6.192 5.132 6.448 5.004C6.704 4.87067 7 4.804 7.336 4.804C7.69867 4.804 8 4.868 8.24 4.996C8.48533 5.124 8.66933 5.29467 8.792 5.508C8.92 5.72133 8.984 5.956 8.984 6.212C8.984 6.49467 8.90667 6.75333 8.752 6.988C8.59733 7.21733 8.36533 7.372 8.056 7.452C8.38667 7.52133 8.66133 7.67867 8.88 7.924C9.09867 8.16933 9.208 8.492 9.208 8.892C9.208 9.20133 9.136 9.48667 8.992 9.748C8.85333 10.004 8.64533 10.2093 8.368 10.364C8.09067 10.5187 7.74667 10.596 7.336 10.596Z" fill="#0C0C0C"/>
</svg>
